<?xml version="1.0" standalone="no"?>
<!DOCTYPE svg PUBLIC "-//W3C//DTD SVG 20010904//EN"
 "http://www.w3.org/TR/2001/REC-SVG-20010904/DTD/svg10.dtd">
<svg version="1.0" xmlns="http://www.w3.org/2000/svg"
 width="1200.000000pt" height="318.000000pt" viewBox="0 0 1200.000000 318.000000"
 preserveAspectRatio="xMidYMid meet">

<g transform="translate(0.000000,318.000000) scale(0.100000,-0.100000)"
fill="#000000" stroke="none">
<path d="M10005 2985 c-137 -17 -351 -44 -475 -59 -124 -15 -234 -29 -245 -31
-19 -4 -24 -25 -54 -217 -18 -117 -49 -307 -67 -423 -19 -115 -40 -253 -49
-305 -8 -52 -24 -151 -35 -220 -22 -142 -147 -931 -186 -1180 -14 -91 -34
-211 -43 -268 -10 -57 -15 -105 -11 -107 4 -3 245 0 536 5 1166 21 1739 30
1947 30 165 0 219 3 222 12 2 7 72 224 156 483 83 259 152 475 152 480 0 6
-347 421 -772 923 -687 812 -775 912 -799 911 -15 -1 -139 -16 -277 -34z m182
-115 c-27 -102 -214 -700 -219 -700 -7 0 -521 605 -526 619 -1 4 60 15 135 25
76 9 239 30 363 46 124 15 231 29 239 29 9 1 12 -6 8 -19z m423 -386 c166
-196 300 -358 297 -360 -2 -2 -188 -3 -414 -2 l-409 3 88 290 c48 160 97 320
108 358 12 37 23 67 25 67 2 0 139 -160 305 -356z m-1136 81 l106 -124 -179
-553 c-99 -304 -214 -660 -256 -791 -42 -131 -78 -237 -80 -235 -2 2 11 98 30
213 18 116 63 399 100 630 36 231 74 472 85 535 10 63 31 193 46 287 15 95 30
170 35 167 4 -2 56 -61 113 -129z m325 -384 c77 -92 120 -150 116 -159 -6 -16
-724 -1202 -736 -1216 -4 -5 20 78 55 185 34 107 145 452 247 766 101 315 187
572 190 570 3 -1 61 -67 128 -146z m1070 -188 c0 -10 -423 -352 -441 -358 -11
-3 -222 236 -301 341 l-19 24 381 0 c210 0 381 -3 380 -7z m-697 -254 c79 -93
144 -173 146 -178 3 -8 -1099 -972 -1138 -996 -7 -5 -11 -4 -8 1 10 18 782
1290 805 1327 20 31 27 36 38 27 8 -7 79 -88 157 -181z m1207 -164 c160 -189
294 -350 296 -357 4 -10 -85 -29 -350 -77 -196 -35 -357 -62 -359 -60 -1 2 16
146 39 319 23 173 48 361 55 418 7 56 16 102 20 102 4 0 138 -155 299 -345z
m-434 263 c-3 -35 -11 -90 -15 -123 -5 -33 -23 -168 -40 -300 -17 -132 -33
-252 -36 -267 -5 -26 -18 -13 -180 179 -96 114 -171 210 -166 215 14 14 437
357 440 358 2 0 1 -28 -3 -62z m-355 -594 c100 -118 180 -217 178 -220 -3 -2
-151 -58 -329 -125 -178 -66 -461 -172 -629 -234 -168 -63 -366 -136 -440
-164 l-135 -50 65 58 c151 135 1095 951 1102 951 3 0 88 -97 188 -216z m1104
-176 c-4 -13 -43 -133 -86 -268 -44 -135 -91 -282 -106 -328 -14 -45 -30 -81
-34 -80 -4 2 -113 129 -243 283 -199 236 -234 281 -218 287 16 7 645 124 681
127 9 1 11 -6 6 -21z m-734 -260 c62 -75 97 -124 89 -126 -125 -22 -1514 -250
-1516 -248 -1 1 170 66 380 144 210 78 506 189 657 246 151 57 278 104 281
105 3 1 52 -54 109 -121z m297 -351 l101 -122 -201 -7 c-274 -9 -1648 -30
-1653 -25 -4 4 1608 275 1636 276 8 0 61 -55 117 -122z"/>
<path d="M791 2193 c-13 -32 -153 -404 -312 -827 -160 -423 -296 -784 -304
-802 l-14 -34 192 0 192 0 25 72 c14 40 43 125 66 188 l41 115 323 0 322 0 23
-65 c13 -36 42 -120 65 -188 l43 -122 193 0 c107 0 194 2 194 5 0 5 -280 758
-520 1400 l-115 310 -196 3 -196 2 -22 -57z m324 -684 c58 -167 105 -307 105
-311 0 -5 -99 -8 -220 -8 -121 0 -220 3 -220 6 0 5 182 525 212 603 5 13 11
22 13 19 3 -2 52 -141 110 -309z"/>
<path d="M1920 1390 l0 -860 190 0 190 0 0 278 0 277 108 107 107 107 255
-384 255 -384 238 -1 c188 0 237 3 231 13 -5 6 -170 241 -367 520 l-359 509
331 332 c182 183 331 336 331 339 0 4 -105 7 -232 7 l-233 0 -330 -352 -330
-352 -3 352 -2 352 -190 0 -190 0 0 -860z"/>
<path d="M3580 1390 l0 -860 190 0 190 0 0 370 0 370 350 0 350 0 0 -370 0
-370 190 0 190 0 0 860 0 860 -190 0 -190 0 0 -330 0 -330 -350 0 -350 0 0
330 0 330 -190 0 -190 0 0 -860z"/>
<path d="M5755 2233 c-8 -21 -192 -508 -450 -1193 -103 -272 -189 -498 -192
-502 -2 -5 83 -8 189 -8 l193 0 65 188 65 187 324 0 324 0 49 -145 c26 -80 55
-164 64 -187 l16 -43 194 0 c107 0 194 2 194 4 0 5 -537 1449 -599 1611 l-39
100 -195 3 c-178 2 -195 1 -202 -15z m304 -709 c54 -159 102 -299 106 -311 l6
-23 -220 0 c-122 0 -221 3 -221 7 0 6 183 529 210 597 6 16 13 27 15 24 3 -2
49 -134 104 -294z"/>
<path d="M6870 1390 l0 -860 178 0 177 0 -3 577 c-2 490 0 575 11 563 8 -8
171 -268 362 -578 l348 -562 194 0 193 0 0 860 0 860 -180 0 -180 0 0 -577
c-1 -487 -3 -575 -14 -560 -8 10 -170 269 -361 577 l-347 560 -189 0 -189 0 0
-860z"/>
</g>
</svg>
