<svg width="40" height="40" viewBox="0 0 40 40" fill="none" xmlns="http://www.w3.org/2000/svg">
<path d="M38.7422 26.9844L37.8043 26.6376C37.4803 27.5138 37.0895 28.3555 36.638 29.1706L36.2794 29.7886C35.7914 30.6012 35.2437 31.3708 34.6433 32.0973L34.6406 32.1006C34.4654 32.3143 34.1412 32.4202 33.8032 32.3127L33.8029 32.3126L29.4513 30.9298L28.9533 30.7715L28.539 31.09C27.5608 31.8419 26.4813 32.469 25.3305 32.9424L24.8461 33.1417L24.7341 33.6533L23.7577 38.1135C23.6812 38.4615 23.4293 38.6865 23.1516 38.7318L23.1481 38.7324C22.1242 38.903 21.0698 38.9922 19.9922 38.9922C18.9146 38.9922 17.8603 38.903 16.8363 38.7323L16.8328 38.7318C16.5552 38.6865 16.3034 38.4617 16.2268 38.1138C16.2268 38.1137 16.2267 38.1136 16.2267 38.1135L15.2503 33.6533L15.1383 33.1417L14.6539 32.9424C13.5032 32.469 12.4237 31.8419 11.4454 31.09L11.03 30.7707L10.5311 30.9304L6.189 32.3205C6.1888 32.3206 6.18859 32.3206 6.18838 32.3207C5.85852 32.4254 5.52851 32.3205 5.34792 32.1039C4.74788 31.3778 4.20057 30.6086 3.71281 29.7964L3.35427 29.1785C2.90292 28.3637 2.5122 27.5222 2.18828 26.6462C2.08884 26.3749 2.16437 26.0424 2.41839 25.8141L2.4184 25.8142L2.42303 25.8099L5.80585 22.7318L6.19219 22.3803L6.12437 21.8623C6.04364 21.2459 6.00002 20.6253 6.00002 20C6.00002 19.3745 6.04367 18.7544 6.12416 18.147L6.19292 17.6282L5.80585 17.276L2.42303 14.1979L2.42305 14.1979L2.41839 14.1937C2.16432 13.9654 2.08881 13.6328 2.18833 13.3614C2.51225 12.4855 2.90295 11.6441 3.35428 10.8293L3.71279 10.2114C4.20083 9.39875 4.7485 8.62917 5.34894 7.90271L5.35162 7.89945C5.52679 7.68568 5.85108 7.57978 6.189 7.6873L6.18936 7.68741L10.5409 9.07023L11.0389 9.22847L11.4532 8.91003C12.4315 8.15807 13.511 7.53103 14.6617 7.05761L15.1461 6.85833L15.2581 6.34666L16.2345 1.88653C16.2346 1.88634 16.2346 1.88615 16.2346 1.88596C16.3113 1.5382 16.5631 1.31347 16.8406 1.26822L16.8406 1.26827L16.851 1.26646C17.8704 1.08917 18.9224 1 20 1C21.0776 1 22.132 1.08917 23.1559 1.25984L23.1594 1.26041C23.4371 1.30569 23.689 1.53064 23.7655 1.87872L24.7419 6.33885L24.8539 6.85052L25.3383 7.0498C26.4891 7.52321 27.5686 8.15026 28.5469 8.90222L28.9611 9.22066L29.4591 9.06241L33.8107 7.6796L33.811 7.67949C34.1411 7.57448 34.4713 7.67938 34.6521 7.89605C35.2521 8.62219 35.7995 9.3914 36.2873 10.2037L36.6458 10.8215C37.0061 11.472 37.3277 12.1394 37.6076 12.8277L37.8037 13.3608C37.9035 13.6323 37.8281 13.9652 37.5738 14.1937L37.5692 14.1979L34.1864 17.276L33.7993 17.6282L33.8681 18.147C33.9486 18.7544 33.9922 19.3745 33.9922 20C33.9922 20.6255 33.9486 21.2456 33.8681 21.853L33.7993 22.3718L34.1864 22.724L37.5692 25.8021L37.5738 25.8063C37.8281 26.0348 37.9035 26.3677 37.8037 26.6392L38.7422 26.9844ZM38.7422 26.9844C38.9922 26.3047 38.7813 25.5469 38.2422 25.0625L37.5078 29.6641C37.9844 28.8047 38.3985 27.9141 38.7422 26.9844ZM20 27.25C21.9228 27.25 23.7669 26.4862 25.1265 25.1265C26.4862 23.7669 27.25 21.9228 27.25 20C27.25 18.0772 26.4862 16.2331 25.1265 14.8735C23.7669 13.5138 21.9228 12.75 20 12.75C18.0772 12.75 16.2331 13.5138 14.8735 14.8735C13.5139 16.2331 12.75 18.0772 12.75 20C12.75 21.9228 13.5139 23.7669 14.8735 25.1265C16.2331 26.4862 18.0772 27.25 20 27.25Z" fill="#F3F4F6" stroke="#111827" stroke-width="2"/>
<g clip-path="url(#clip0_14_8)">
<path d="M16.8751 17.7891L17.3233 17.3409L17.1092 16.7443C16.7179 15.6536 16.5 14.474 16.5 13.25C16.5 7.58666 21.0867 3 26.75 3C27.718 3 28.6563 3.13752 29.5537 3.38918C29.5536 3.38981 29.5534 3.39045 29.5532 3.3911C29.5501 3.40173 29.5428 3.41798 29.5234 3.43742L30.2305 4.14453L29.5234 3.43742L24.1234 8.83742C23.7261 9.2347 23.5 9.77685 23.5 10.3391V14.375C23.5 15.546 24.454 16.5 25.625 16.5H29.6609C30.2231 16.5 30.7653 16.2739 31.1626 15.8766L36.5626 10.4766C36.5822 10.457 36.5991 10.449 36.6106 10.4453C36.8624 11.343 37 12.2817 37 13.25C37 18.9133 32.4133 23.5 26.75 23.5C25.5225 23.5 24.3448 23.288 23.2606 22.8926L22.6617 22.6741L22.2109 23.1249L9.44211 35.8937C8.73599 36.5998 7.77365 37 6.77422 37C4.68978 37 3 35.3102 3 33.2258C3 32.2264 3.4002 31.264 4.10632 30.5579L16.8751 17.7891ZM9.52535 30.4747C9.02135 29.9706 8.33777 29.6875 7.625 29.6875C6.91223 29.6875 6.22865 29.9706 5.72465 30.4747C5.22065 30.9787 4.9375 31.6622 4.9375 32.375C4.9375 33.0878 5.22065 33.7713 5.72465 34.2753C6.22865 34.7794 6.91223 35.0625 7.625 35.0625C8.33777 35.0625 9.02135 34.7794 9.52535 34.2753C10.0294 33.7713 10.3125 33.0878 10.3125 32.375C10.3125 31.6622 10.0294 30.9787 9.52535 30.4747Z" fill="#F3F4F6" stroke="#111827" stroke-width="2"/>
</g>
<defs>
<clipPath id="clip0_14_8">
<rect width="36" height="36" fill="white" transform="translate(2 2)"/>
</clipPath>
</defs>
</svg>
