<svg width="160" height="40" viewBox="0 0 160 40" fill="none" xmlns="http://www.w3.org/2000/svg">
<path d="M51.7715 30H47.9043L48.5488 26.4551L51.9766 26.4697C53.1289 26.4795 54.0469 26.2451 54.7305 25.7666C55.4238 25.2783 55.9414 24.624 56.2832 23.8037C56.625 22.9736 56.874 22.0361 57.0303 20.9912L57.499 17.6514C57.5771 17.0361 57.6309 16.416 57.6602 15.791C57.6992 15.166 57.6504 14.5898 57.5137 14.0625C57.377 13.5352 57.1035 13.1104 56.6934 12.7881C56.293 12.4561 55.6973 12.2754 54.9062 12.2461L50.9072 12.2314L51.5371 8.67188L55.082 8.68652C56.3711 8.71582 57.4648 8.97949 58.3633 9.47754C59.2617 9.97559 59.9795 10.6445 60.5166 11.4844C61.0635 12.3242 61.4297 13.2764 61.6152 14.3408C61.8008 15.4053 61.8203 16.5234 61.6738 17.6953L61.1758 21.0059C60.9805 22.2656 60.6338 23.4473 60.1357 24.5508C59.6475 25.6445 59.0078 26.6016 58.2168 27.4219C57.4355 28.2324 56.5078 28.8672 55.4336 29.3262C54.3691 29.7852 53.1484 30.0098 51.7715 30ZM54.0273 8.67188L50.3359 30H46.1465L49.8232 8.67188H54.0273ZM68.4707 17.9004L66.376 30H62.377L65.1309 14.1504H68.9102L68.4707 17.9004ZM72.6748 14.0186L72.1328 18.1055C71.918 18.0566 71.6982 18.0225 71.4736 18.0029C71.2588 17.9736 71.0488 17.959 70.8438 17.959C70.3262 17.9492 69.8818 18.0322 69.5107 18.208C69.1494 18.3838 68.8467 18.6328 68.6025 18.9551C68.3584 19.2676 68.1533 19.624 67.9873 20.0244C67.8311 20.4248 67.709 20.8398 67.6211 21.2695L66.918 20.9766C66.9961 20.3613 67.1182 19.6436 67.2842 18.8232C67.46 18.0029 67.709 17.2119 68.0312 16.4502C68.3633 15.6885 68.8027 15.0586 69.3496 14.5605C69.8965 14.0625 70.585 13.8135 71.415 13.8135C71.6396 13.8232 71.8496 13.8477 72.0449 13.8867C72.25 13.9258 72.46 13.9697 72.6748 14.0186ZM78.9736 14.1504L76.2051 30H72.2061L74.96 14.1504H78.9736ZM75.4873 10.1221C75.4775 9.4873 75.6777 8.9502 76.0879 8.51074C76.498 8.07129 77.0254 7.84668 77.6699 7.83691C78.2949 7.82715 78.8125 8.02246 79.2227 8.42285C79.6328 8.82324 79.833 9.34082 79.8232 9.97559C79.8428 10.6006 79.6475 11.1328 79.2373 11.5723C78.8369 12.0117 78.3096 12.2363 77.6553 12.2461C77.04 12.2656 76.5273 12.0752 76.1172 11.6748C75.707 11.2646 75.4971 10.7471 75.4873 10.1221ZM84.5547 26.6602L88.9346 14.1504H93.2119L86.5029 30H83.9395L84.5547 26.6602ZM85.0234 14.1504L85.5654 27.041L85.1406 30H82.665L80.9219 14.1504H85.0234ZM98.6025 30.293C97.5479 30.2734 96.6445 30.0684 95.8926 29.6777C95.1406 29.2871 94.54 28.7549 94.0908 28.0811C93.6416 27.3975 93.334 26.626 93.168 25.7666C93.002 24.8975 92.9678 23.9697 93.0654 22.9834L93.2119 21.6797C93.3486 20.6641 93.5879 19.6826 93.9297 18.7354C94.2715 17.7881 94.7305 16.9434 95.3066 16.2012C95.8926 15.4492 96.6104 14.8633 97.46 14.4434C98.3096 14.0234 99.3057 13.8232 100.448 13.8428C101.542 13.8721 102.426 14.1162 103.1 14.5752C103.783 15.0244 104.296 15.6201 104.638 16.3623C104.989 17.1045 105.204 17.9297 105.282 18.8379C105.36 19.7363 105.341 20.6445 105.224 21.5625L104.96 23.4375H94.6328L95.1455 20.5518L101.4 20.5664L101.474 20.1562C101.542 19.7461 101.566 19.3213 101.547 18.8818C101.527 18.4326 101.41 18.0566 101.195 17.7539C100.98 17.4414 100.609 17.2705 100.082 17.2412C99.5059 17.2119 99.0371 17.3438 98.6758 17.6367C98.3242 17.9199 98.0508 18.2959 97.8555 18.7646C97.6602 19.2334 97.5186 19.7266 97.4307 20.2441C97.3525 20.752 97.2891 21.2305 97.2402 21.6797L97.0791 22.998C97.0303 23.4375 97.0107 23.8818 97.0205 24.3311C97.0303 24.7705 97.0889 25.1807 97.1963 25.5615C97.3135 25.9424 97.5186 26.2549 97.8115 26.499C98.1143 26.7432 98.5439 26.8701 99.1006 26.8799C99.7842 26.8994 100.414 26.7725 100.99 26.499C101.576 26.2256 102.123 25.874 102.631 25.4443L103.993 27.9492C103.583 28.4961 103.085 28.9502 102.499 29.3115C101.913 29.6631 101.278 29.917 100.595 30.0732C99.9209 30.2295 99.2568 30.3027 98.6025 30.293ZM117.353 22.9102L121.381 22.8516C121.225 24.3359 120.81 25.6445 120.136 26.7773C119.472 27.9102 118.568 28.7891 117.426 29.4141C116.293 30.0391 114.955 30.332 113.412 30.293C112.123 30.2637 111.063 29.9854 110.233 29.458C109.403 28.9209 108.764 28.2178 108.314 27.3486C107.865 26.4697 107.587 25.498 107.479 24.4336C107.372 23.3594 107.387 22.2656 107.523 21.1523L108.08 17.5342C108.256 16.3525 108.554 15.21 108.974 14.1064C109.394 12.9932 109.95 12.002 110.644 11.1328C111.337 10.2539 112.187 9.56543 113.192 9.06738C114.208 8.56934 115.38 8.33496 116.708 8.36426C118.241 8.39355 119.452 8.75 120.341 9.43359C121.239 10.1074 121.884 11.0107 122.274 12.1436C122.665 13.2764 122.865 14.5312 122.875 15.9082L118.686 15.8936C118.725 15.2295 118.715 14.5996 118.656 14.0039C118.598 13.3984 118.402 12.9053 118.07 12.5244C117.748 12.1338 117.187 11.9238 116.386 11.8945C115.604 11.8652 114.96 12.0215 114.452 12.3633C113.954 12.7051 113.554 13.1592 113.251 13.7256C112.958 14.292 112.733 14.9072 112.577 15.5713C112.431 16.2354 112.313 16.8799 112.226 17.5049L111.713 21.167C111.645 21.6748 111.581 22.2412 111.522 22.8662C111.474 23.4912 111.488 24.0967 111.566 24.6826C111.645 25.2686 111.845 25.7568 112.167 26.1475C112.489 26.5381 113.012 26.7529 113.734 26.792C114.584 26.8213 115.248 26.665 115.727 26.3232C116.205 25.9814 116.562 25.5127 116.796 24.917C117.04 24.3115 117.226 23.6426 117.353 22.9102ZM130.141 26.3525L131.312 18.999C131.342 18.7158 131.347 18.4277 131.327 18.1348C131.308 17.8418 131.225 17.5928 131.078 17.3877C130.941 17.1729 130.692 17.0605 130.331 17.0508C129.94 17.041 129.628 17.124 129.394 17.2998C129.159 17.4756 128.979 17.7051 128.852 17.9883C128.725 18.2715 128.632 18.5693 128.573 18.8818L124.56 18.9111C124.608 18.1104 124.809 17.3975 125.16 16.7725C125.521 16.1377 125.985 15.6006 126.552 15.1611C127.118 14.7217 127.753 14.3896 128.456 14.165C129.169 13.9404 129.906 13.833 130.668 13.8428C131.723 13.8623 132.616 14.0918 133.349 14.5312C134.081 14.9707 134.618 15.5762 134.96 16.3477C135.302 17.1191 135.419 18.0322 135.312 19.0869L134.184 26.1621C134.096 26.7383 134.018 27.3389 133.949 27.9639C133.891 28.5791 133.959 29.1748 134.154 29.751L134.14 30L130.229 30.0146C130.062 29.4189 129.984 28.8135 129.994 28.1982C130.014 27.5732 130.062 26.958 130.141 26.3525ZM131.679 20.3174L131.269 22.7783L129.965 22.7637C129.584 22.7734 129.232 22.8467 128.91 22.9834C128.598 23.1104 128.314 23.2959 128.061 23.54C127.816 23.7744 127.616 24.0479 127.46 24.3604C127.313 24.6631 127.221 25.0049 127.182 25.3857C127.143 25.6396 127.138 25.8984 127.167 26.1621C127.206 26.416 127.299 26.6309 127.445 26.8066C127.602 26.9824 127.836 27.0752 128.148 27.085C128.49 27.085 128.827 27.0166 129.159 26.8799C129.491 26.7334 129.77 26.5283 129.994 26.2646C130.219 26.001 130.351 25.6934 130.39 25.3418L131.122 26.9824C130.956 27.4219 130.746 27.8467 130.492 28.2568C130.248 28.6572 129.955 29.0186 129.613 29.3408C129.281 29.6533 128.9 29.8975 128.471 30.0732C128.051 30.249 127.572 30.332 127.035 30.3223C126.186 30.3125 125.453 30.0928 124.838 29.6631C124.232 29.2236 123.778 28.6572 123.476 27.9639C123.173 27.2705 123.041 26.5088 123.08 25.6787C123.119 24.7412 123.334 23.9355 123.725 23.2617C124.115 22.5781 124.618 22.0166 125.233 21.5771C125.858 21.1377 126.566 20.8154 127.357 20.6104C128.158 20.4053 128.993 20.3027 129.862 20.3027L131.679 20.3174ZM142.504 17.9004L140.409 30H136.41L139.164 14.1504H142.943L142.504 17.9004ZM146.708 14.0186L146.166 18.1055C145.951 18.0566 145.731 18.0225 145.507 18.0029C145.292 17.9736 145.082 17.959 144.877 17.959C144.359 17.9492 143.915 18.0322 143.544 18.208C143.183 18.3838 142.88 18.6328 142.636 18.9551C142.392 19.2676 142.187 19.624 142.021 20.0244C141.864 20.4248 141.742 20.8398 141.654 21.2695L140.951 20.9766C141.029 20.3613 141.151 19.6436 141.317 18.8232C141.493 18.0029 141.742 17.2119 142.064 16.4502C142.396 15.6885 142.836 15.0586 143.383 14.5605C143.93 14.0625 144.618 13.8135 145.448 13.8135C145.673 13.8232 145.883 13.8477 146.078 13.8867C146.283 13.9258 146.493 13.9697 146.708 14.0186ZM152.187 30.293C151.132 30.2734 150.229 30.0684 149.477 29.6777C148.725 29.2871 148.124 28.7549 147.675 28.0811C147.226 27.3975 146.918 26.626 146.752 25.7666C146.586 24.8975 146.552 23.9697 146.649 22.9834L146.796 21.6797C146.933 20.6641 147.172 19.6826 147.514 18.7354C147.855 17.7881 148.314 16.9434 148.891 16.2012C149.477 15.4492 150.194 14.8633 151.044 14.4434C151.894 14.0234 152.89 13.8232 154.032 13.8428C155.126 13.8721 156.01 14.1162 156.684 14.5752C157.367 15.0244 157.88 15.6201 158.222 16.3623C158.573 17.1045 158.788 17.9297 158.866 18.8379C158.944 19.7363 158.925 20.6445 158.808 21.5625L158.544 23.4375H148.217L148.729 20.5518L154.984 20.5664L155.058 20.1562C155.126 19.7461 155.15 19.3213 155.131 18.8818C155.111 18.4326 154.994 18.0566 154.779 17.7539C154.564 17.4414 154.193 17.2705 153.666 17.2412C153.09 17.2119 152.621 17.3438 152.26 17.6367C151.908 17.9199 151.635 18.2959 151.439 18.7646C151.244 19.2334 151.103 19.7266 151.015 20.2441C150.937 20.752 150.873 21.2305 150.824 21.6797L150.663 22.998C150.614 23.4375 150.595 23.8818 150.604 24.3311C150.614 24.7705 150.673 25.1807 150.78 25.5615C150.897 25.9424 151.103 26.2549 151.396 26.499C151.698 26.7432 152.128 26.8701 152.685 26.8799C153.368 26.8994 153.998 26.7725 154.574 26.499C155.16 26.2256 155.707 25.874 156.215 25.4443L157.577 27.9492C157.167 28.4961 156.669 28.9502 156.083 29.3115C155.497 29.6631 154.862 29.917 154.179 30.0732C153.505 30.2295 152.841 30.3027 152.187 30.293Z" fill="#F3F4F6"/>
<path d="M38.7422 26.9844L37.8043 26.6376C37.4803 27.5138 37.0895 28.3555 36.638 29.1706L36.2794 29.7886C35.7914 30.6012 35.2437 31.3708 34.6433 32.0973L34.6406 32.1006C34.4654 32.3143 34.1412 32.4202 33.8032 32.3127L33.8029 32.3126L29.4513 30.9298L28.9533 30.7715L28.539 31.09C27.5608 31.8419 26.4813 32.469 25.3305 32.9424L24.8461 33.1417L24.7341 33.6533L23.7577 38.1135C23.6812 38.4615 23.4293 38.6865 23.1516 38.7318L23.1481 38.7324C22.1242 38.903 21.0698 38.9922 19.9922 38.9922C18.9146 38.9922 17.8603 38.903 16.8363 38.7323L16.8328 38.7318C16.5552 38.6865 16.3034 38.4617 16.2268 38.1138C16.2268 38.1137 16.2267 38.1136 16.2267 38.1135L15.2503 33.6533L15.1383 33.1417L14.6539 32.9424C13.5032 32.469 12.4237 31.8419 11.4454 31.09L11.03 30.7707L10.5311 30.9304L6.189 32.3205C6.1888 32.3206 6.18859 32.3206 6.18838 32.3207C5.85852 32.4254 5.52851 32.3205 5.34792 32.1039C4.74788 31.3778 4.20057 30.6086 3.71281 29.7964L3.35427 29.1785C2.90292 28.3637 2.5122 27.5222 2.18828 26.6462C2.08884 26.3749 2.16437 26.0424 2.41839 25.8141L2.4184 25.8142L2.42303 25.8099L5.80585 22.7318L6.19219 22.3803L6.12437 21.8623C6.04364 21.2459 6.00002 20.6253 6.00002 20C6.00002 19.3745 6.04367 18.7544 6.12416 18.147L6.19292 17.6282L5.80585 17.276L2.42303 14.1979L2.42305 14.1979L2.41839 14.1937C2.16432 13.9654 2.08881 13.6328 2.18833 13.3614C2.51225 12.4855 2.90295 11.6441 3.35428 10.8293L3.71279 10.2114C4.20083 9.39875 4.7485 8.62917 5.34894 7.90271L5.35162 7.89945C5.52679 7.68568 5.85108 7.57978 6.189 7.6873L6.18936 7.68741L10.5409 9.07023L11.0389 9.22847L11.4532 8.91003C12.4315 8.15807 13.511 7.53103 14.6617 7.05761L15.1461 6.85833L15.2581 6.34666L16.2345 1.88653C16.2346 1.88634 16.2346 1.88615 16.2346 1.88596C16.3113 1.5382 16.5631 1.31347 16.8406 1.26822L16.8406 1.26827L16.851 1.26646C17.8704 1.08917 18.9224 1 20 1C21.0776 1 22.132 1.08917 23.1559 1.25984L23.1594 1.26041C23.4371 1.30569 23.689 1.53064 23.7655 1.87872L24.7419 6.33885L24.8539 6.85052L25.3383 7.0498C26.4891 7.52321 27.5686 8.15026 28.5469 8.90222L28.9611 9.22066L29.4591 9.06241L33.8107 7.6796L33.811 7.67949C34.1411 7.57448 34.4713 7.67938 34.6521 7.89605C35.2521 8.62219 35.7995 9.3914 36.2873 10.2037L36.6458 10.8215C37.0061 11.472 37.3277 12.1394 37.6076 12.8277L37.8037 13.3608C37.9035 13.6323 37.8281 13.9652 37.5738 14.1937L37.5692 14.1979L34.1864 17.276L33.7993 17.6282L33.8681 18.147C33.9486 18.7544 33.9922 19.3745 33.9922 20C33.9922 20.6255 33.9486 21.2456 33.8681 21.853L33.7993 22.3718L34.1864 22.724L37.5692 25.8021L37.5738 25.8063C37.8281 26.0348 37.9035 26.3677 37.8037 26.6392L38.7422 26.9844ZM38.7422 26.9844C38.9922 26.3047 38.7813 25.5469 38.2422 25.0625L37.5078 29.6641C37.9844 28.8047 38.3985 27.9141 38.7422 26.9844ZM20 27.25C21.9228 27.25 23.7669 26.4862 25.1265 25.1265C26.4862 23.7669 27.25 21.9228 27.25 20C27.25 18.0772 26.4862 16.2331 25.1265 14.8735C23.7669 13.5138 21.9228 12.75 20 12.75C18.0772 12.75 16.2331 13.5138 14.8735 14.8735C13.5139 16.2331 12.75 18.0772 12.75 20C12.75 21.9228 13.5139 23.7669 14.8735 25.1265C16.2331 26.4862 18.0772 27.25 20 27.25Z" fill="#F3F4F6" stroke="#111827" stroke-width="2"/>
<g clip-path="url(#clip0_14_12)">
<path d="M16.8751 17.7891L17.3233 17.3409L17.1092 16.7443C16.7179 15.6536 16.5 14.474 16.5 13.25C16.5 7.58666 21.0867 3 26.75 3C27.718 3 28.6563 3.13752 29.5537 3.38918C29.5536 3.38981 29.5534 3.39045 29.5532 3.3911C29.5501 3.40173 29.5428 3.41798 29.5234 3.43742L30.2305 4.14453L29.5234 3.43742L24.1234 8.83742C23.7261 9.2347 23.5 9.77685 23.5 10.3391V14.375C23.5 15.546 24.454 16.5 25.625 16.5H29.6609C30.2231 16.5 30.7653 16.2739 31.1626 15.8766L36.5626 10.4766C36.5822 10.457 36.5991 10.449 36.6106 10.4453C36.8624 11.343 37 12.2817 37 13.25C37 18.9133 32.4133 23.5 26.75 23.5C25.5225 23.5 24.3448 23.288 23.2606 22.8926L22.6617 22.6741L22.2109 23.1249L9.44211 35.8937C8.73599 36.5998 7.77365 37 6.77422 37C4.68978 37 3 35.3102 3 33.2258C3 32.2264 3.4002 31.264 4.10632 30.5579L16.8751 17.7891ZM9.52535 30.4747C9.02135 29.9706 8.33777 29.6875 7.625 29.6875C6.91223 29.6875 6.22865 29.9706 5.72465 30.4747C5.22065 30.9787 4.9375 31.6622 4.9375 32.375C4.9375 33.0878 5.22065 33.7713 5.72465 34.2753C6.22865 34.7794 6.91223 35.0625 7.625 35.0625C8.33777 35.0625 9.02135 34.7794 9.52535 34.2753C10.0294 33.7713 10.3125 33.0878 10.3125 32.375C10.3125 31.6622 10.0294 30.9787 9.52535 30.4747Z" fill="#F3F4F6" stroke="#111827" stroke-width="2"/>
</g>
<defs>
<clipPath id="clip0_14_12">
<rect width="36" height="36" fill="white" transform="translate(2 2)"/>
</clipPath>
</defs>
</svg>
