<?xml version="1.0" standalone="no"?>
<!DOCTYPE svg PUBLIC "-//W3C//DTD SVG 20010904//EN"
 "http://www.w3.org/TR/2001/REC-SVG-20010904/DTD/svg10.dtd">
<svg version="1.0" xmlns="http://www.w3.org/2000/svg"
 width="1280.000000pt" height="748.000000pt" viewBox="0 0 1280.000000 748.000000"
 preserveAspectRatio="xMidYMid meet">

<g transform="translate(0.000000,748.000000) scale(0.100000,-0.100000)"
fill="#000000" stroke="none">
<path d="M31 7453 c13 -14 824 -859 1803 -1876 l1778 -1849 -105 -107 c-77
-78 -3175 -3300 -3441 -3578 l-40 -43 346 0 346 0 1788 1859 c984 1023 1789
1864 1789 1870 0 5 -810 852 -1799 1880 l-1800 1871 -345 0 -344 0 24 -27z"/>
<path d="M1337 7366 c59 -62 869 -904 1798 -1870 930 -966 1691 -1760 1693
-1764 2 -6 -1508 -1580 -3381 -3525 l-200 -207 350 2 350 3 1553 1615 c854
888 1661 1726 1792 1861 l238 247 -1681 1748 c-925 962 -1738 1806 -1807 1877
l-125 127 -344 0 -345 0 109 -114z"/>
<path d="M2460 7475 c0 -2 810 -847 1801 -1876 l1800 -1872 -119 -121 c-105
-107 -3359 -3492 -3436 -3573 l-30 -33 345 0 346 0 1789 1860 c984 1023 1789
1864 1789 1869 0 5 -810 851 -1800 1880 l-1799 1871 -343 0 c-189 0 -343 -2
-343 -5z"/>
<path d="M3767 7387 c48 -52 858 -893 1798 -1871 941 -977 1711 -1780 1713
-1784 1 -4 -723 -761 -1609 -1682 -886 -921 -1692 -1759 -1791 -1863 l-181
-187 350 2 349 3 1788 1858 c983 1022 1785 1864 1783 1871 -3 6 -813 852
-1801 1879 l-1796 1867 -346 0 -346 0 89 -93z"/>
<path d="M4910 7475 c0 -3 808 -845 1795 -1871 988 -1027 1795 -1872 1793
-1879 -2 -6 -795 -835 -1763 -1841 -968 -1007 -1771 -1842 -1784 -1857 l-24
-27 344 0 345 0 2095 2177 c1151 1198 2767 2877 3589 3731 822 855 1496 1558
1498 1563 2 5 -141 9 -340 9 l-343 -1 -1630 -1695 -1630 -1695 -132 138 -131
138 67 70 c100 103 2848 2964 2890 3008 l35 37 -320 0 -320 0 -1336 -1389
-1337 -1390 -138 140 c-76 77 -141 146 -145 152 -4 7 395 429 999 1057 553
575 1088 1132 1190 1238 l185 192 -318 0 -319 0 -1029 -1070 c-565 -589 -1032
-1070 -1036 -1070 -11 0 -285 288 -285 299 0 5 383 406 850 891 468 486 863
898 878 917 l28 33 -273 -1 -273 0 -705 -735 c-388 -404 -724 -753 -748 -777
l-42 -42 -163 169 c-89 93 -162 175 -162 181 0 9 544 581 1064 1118 l85 87
-220 0 -220 0 -465 -484 c-255 -267 -469 -484 -475 -483 -7 1 -220 219 -475
485 l-464 482 -342 0 c-189 0 -343 -2 -343 -5z"/>
</g>
</svg>
